<?xml version="1.0" encoding="UTF-8"?>
<mxfile host="Electron" modified="2023-07-31T14:05:06.215Z" agent="5.0 (Macintosh; Intel Mac OS X 10_15_7) AppleWebKit/537.36 (KHTML, like Gecko) draw.io/19.0.3 Chrome/102.0.5005.63 Electron/19.0.3 Safari/537.36" etag="k9Xy5wq3iJrC0QTqBTmy" version="19.0.3" type="device">
  <diagram id="C5RBs43oDa-KdzZeNtuy" name="Page-1">
    <mxGraphModel dx="1018" dy="599" grid="1" gridSize="10" guides="1" tooltips="1" connect="1" arrows="1" fold="1" page="1" pageScale="1" pageWidth="1169" pageHeight="827" math="0" shadow="0">
      <root>
        <mxCell id="WIyWlLk6GJQsqaUBKTNV-0" />
        <mxCell id="WIyWlLk6GJQsqaUBKTNV-1" parent="WIyWlLk6GJQsqaUBKTNV-0" />
        <mxCell id="426q9mbDbhlmfYrgDNKl-143" value="" style="rounded=0;whiteSpace=wrap;html=1;fontFamily=Courier New;fontSize=28;fillColor=none;dashed=1;" parent="WIyWlLk6GJQsqaUBKTNV-1" vertex="1">
          <mxGeometry x="5" y="14" width="1105" height="216" as="geometry" />
        </mxCell>
        <mxCell id="426q9mbDbhlmfYrgDNKl-142" value="" style="rounded=0;whiteSpace=wrap;html=1;fontFamily=Courier New;fontSize=28;fillColor=none;dashed=1;" parent="WIyWlLk6GJQsqaUBKTNV-1" vertex="1">
          <mxGeometry x="5" y="240" width="1105" height="880" as="geometry" />
        </mxCell>
        <mxCell id="426q9mbDbhlmfYrgDNKl-2" value="" style="rounded=0;whiteSpace=wrap;html=1;" parent="WIyWlLk6GJQsqaUBKTNV-1" vertex="1">
          <mxGeometry x="50" y="310" width="370" height="780" as="geometry" />
        </mxCell>
        <mxCell id="426q9mbDbhlmfYrgDNKl-61" value="" style="edgeStyle=orthogonalEdgeStyle;rounded=0;orthogonalLoop=1;jettySize=auto;html=1;fontFamily=Courier New;" parent="WIyWlLk6GJQsqaUBKTNV-1" source="WIyWlLk6GJQsqaUBKTNV-3" target="WIyWlLk6GJQsqaUBKTNV-7" edge="1">
          <mxGeometry relative="1" as="geometry" />
        </mxCell>
        <mxCell id="WIyWlLk6GJQsqaUBKTNV-3" value="&lt;font face=&quot;Courier New&quot;&gt;__init__&lt;/font&gt;" style="rounded=1;whiteSpace=wrap;html=1;fontSize=12;glass=0;strokeWidth=1;shadow=0;" parent="WIyWlLk6GJQsqaUBKTNV-1" vertex="1">
          <mxGeometry x="80" y="340" width="130" height="40" as="geometry" />
        </mxCell>
        <mxCell id="426q9mbDbhlmfYrgDNKl-7" value="" style="edgeStyle=orthogonalEdgeStyle;rounded=0;orthogonalLoop=1;jettySize=auto;html=1;" parent="WIyWlLk6GJQsqaUBKTNV-1" source="WIyWlLk6GJQsqaUBKTNV-7" target="WIyWlLk6GJQsqaUBKTNV-12" edge="1">
          <mxGeometry relative="1" as="geometry" />
        </mxCell>
        <mxCell id="WIyWlLk6GJQsqaUBKTNV-7" value="&lt;font face=&quot;Courier New&quot;&gt;load_data&lt;/font&gt;" style="rounded=1;whiteSpace=wrap;html=1;fontSize=12;glass=0;strokeWidth=1;shadow=0;" parent="WIyWlLk6GJQsqaUBKTNV-1" vertex="1">
          <mxGeometry x="80" y="400" width="130" height="40" as="geometry" />
        </mxCell>
        <mxCell id="426q9mbDbhlmfYrgDNKl-12" value="yes" style="edgeStyle=orthogonalEdgeStyle;rounded=0;orthogonalLoop=1;jettySize=auto;html=1;" parent="WIyWlLk6GJQsqaUBKTNV-1" source="WIyWlLk6GJQsqaUBKTNV-10" target="426q9mbDbhlmfYrgDNKl-11" edge="1">
          <mxGeometry relative="1" as="geometry" />
        </mxCell>
        <mxCell id="426q9mbDbhlmfYrgDNKl-18" value="" style="edgeStyle=orthogonalEdgeStyle;rounded=0;orthogonalLoop=1;jettySize=auto;html=1;" parent="WIyWlLk6GJQsqaUBKTNV-1" source="WIyWlLk6GJQsqaUBKTNV-10" target="426q9mbDbhlmfYrgDNKl-11" edge="1">
          <mxGeometry relative="1" as="geometry" />
        </mxCell>
        <mxCell id="426q9mbDbhlmfYrgDNKl-24" value="&lt;font face=&quot;Courier New&quot;&gt;Yes&lt;/font&gt;" style="edgeLabel;html=1;align=center;verticalAlign=middle;resizable=0;points=[];" parent="426q9mbDbhlmfYrgDNKl-18" vertex="1" connectable="0">
          <mxGeometry x="-0.004" y="-2" relative="1" as="geometry">
            <mxPoint as="offset" />
          </mxGeometry>
        </mxCell>
        <mxCell id="426q9mbDbhlmfYrgDNKl-20" style="edgeStyle=orthogonalEdgeStyle;rounded=0;orthogonalLoop=1;jettySize=auto;html=1;exitX=0.5;exitY=1;exitDx=0;exitDy=0;entryX=0.5;entryY=0;entryDx=0;entryDy=0;" parent="WIyWlLk6GJQsqaUBKTNV-1" edge="1">
          <mxGeometry relative="1" as="geometry">
            <mxPoint x="145" y="600" as="targetPoint" />
            <Array as="points">
              <mxPoint x="145" y="560" />
            </Array>
            <mxPoint x="144" y="560" as="sourcePoint" />
          </mxGeometry>
        </mxCell>
        <mxCell id="426q9mbDbhlmfYrgDNKl-21" value="&lt;font face=&quot;Courier New&quot;&gt;No&lt;/font&gt;" style="edgeLabel;html=1;align=center;verticalAlign=middle;resizable=0;points=[];" parent="426q9mbDbhlmfYrgDNKl-20" vertex="1" connectable="0">
          <mxGeometry x="-0.0678" y="2" relative="1" as="geometry">
            <mxPoint x="-2" as="offset" />
          </mxGeometry>
        </mxCell>
        <mxCell id="WIyWlLk6GJQsqaUBKTNV-10" value="" style="rhombus;whiteSpace=wrap;html=1;shadow=0;fontFamily=Helvetica;fontSize=12;align=center;strokeWidth=1;spacing=6;spacingTop=-4;" parent="WIyWlLk6GJQsqaUBKTNV-1" vertex="1">
          <mxGeometry x="130" y="534.25" width="30" height="25.75" as="geometry" />
        </mxCell>
        <mxCell id="426q9mbDbhlmfYrgDNKl-8" value="" style="edgeStyle=orthogonalEdgeStyle;rounded=0;orthogonalLoop=1;jettySize=auto;html=1;" parent="WIyWlLk6GJQsqaUBKTNV-1" source="WIyWlLk6GJQsqaUBKTNV-12" target="WIyWlLk6GJQsqaUBKTNV-10" edge="1">
          <mxGeometry relative="1" as="geometry" />
        </mxCell>
        <mxCell id="WIyWlLk6GJQsqaUBKTNV-12" value="&lt;font face=&quot;Courier New&quot;&gt;input_data_check&lt;/font&gt;" style="rounded=1;whiteSpace=wrap;html=1;fontSize=12;glass=0;strokeWidth=1;shadow=0;" parent="WIyWlLk6GJQsqaUBKTNV-1" vertex="1">
          <mxGeometry x="80" y="470" width="130" height="40" as="geometry" />
        </mxCell>
        <mxCell id="426q9mbDbhlmfYrgDNKl-13" style="edgeStyle=orthogonalEdgeStyle;rounded=0;orthogonalLoop=1;jettySize=auto;html=1;exitX=0;exitY=0.5;exitDx=0;exitDy=0;entryX=1;entryY=0.5;entryDx=0;entryDy=0;" parent="WIyWlLk6GJQsqaUBKTNV-1" source="426q9mbDbhlmfYrgDNKl-11" target="426q9mbDbhlmfYrgDNKl-27" edge="1">
          <mxGeometry relative="1" as="geometry">
            <mxPoint x="200" y="620" as="targetPoint" />
            <Array as="points">
              <mxPoint x="230" y="640" />
              <mxPoint x="230" y="640" />
            </Array>
          </mxGeometry>
        </mxCell>
        <mxCell id="426q9mbDbhlmfYrgDNKl-11" value="&lt;font face=&quot;Courier New&quot;&gt;jsonschema.validate&lt;/font&gt;" style="whiteSpace=wrap;html=1;rounded=1;glass=0;strokeWidth=1;shadow=0;" parent="WIyWlLk6GJQsqaUBKTNV-1" vertex="1">
          <mxGeometry x="255" y="620" width="150" height="40" as="geometry" />
        </mxCell>
        <mxCell id="426q9mbDbhlmfYrgDNKl-22" style="edgeStyle=orthogonalEdgeStyle;rounded=0;orthogonalLoop=1;jettySize=auto;html=1;exitX=0.5;exitY=1;exitDx=0;exitDy=0;" parent="WIyWlLk6GJQsqaUBKTNV-1" source="426q9mbDbhlmfYrgDNKl-11" target="426q9mbDbhlmfYrgDNKl-11" edge="1">
          <mxGeometry relative="1" as="geometry" />
        </mxCell>
        <mxCell id="426q9mbDbhlmfYrgDNKl-25" value="process" style="rounded=1;whiteSpace=wrap;html=1;fontSize=12;glass=0;strokeWidth=1;shadow=0;" parent="WIyWlLk6GJQsqaUBKTNV-1" vertex="1">
          <mxGeometry x="80" y="600" width="130" height="40" as="geometry" />
        </mxCell>
        <mxCell id="426q9mbDbhlmfYrgDNKl-26" value="process" style="rounded=1;whiteSpace=wrap;html=1;fontSize=12;glass=0;strokeWidth=1;shadow=0;" parent="WIyWlLk6GJQsqaUBKTNV-1" vertex="1">
          <mxGeometry x="90" y="610" width="130" height="40" as="geometry" />
        </mxCell>
        <mxCell id="426q9mbDbhlmfYrgDNKl-33" style="edgeStyle=orthogonalEdgeStyle;rounded=0;orthogonalLoop=1;jettySize=auto;html=1;exitX=0.333;exitY=0.988;exitDx=0;exitDy=0;fontFamily=Courier New;entryX=0.5;entryY=0;entryDx=0;entryDy=0;exitPerimeter=0;" parent="WIyWlLk6GJQsqaUBKTNV-1" edge="1">
          <mxGeometry relative="1" as="geometry">
            <mxPoint x="143" y="680" as="targetPoint" />
            <Array as="points">
              <mxPoint x="143" y="670" />
              <mxPoint x="143" y="670" />
            </Array>
            <mxPoint x="146.28999999999996" y="659.52" as="sourcePoint" />
          </mxGeometry>
        </mxCell>
        <mxCell id="426q9mbDbhlmfYrgDNKl-27" value="&lt;font face=&quot;Courier New&quot;&gt;process_&amp;lt;attr&amp;gt;&lt;/font&gt;" style="rounded=1;whiteSpace=wrap;html=1;fontSize=12;glass=0;strokeWidth=1;shadow=0;" parent="WIyWlLk6GJQsqaUBKTNV-1" vertex="1">
          <mxGeometry x="100" y="620" width="130" height="40" as="geometry" />
        </mxCell>
        <mxCell id="426q9mbDbhlmfYrgDNKl-37" style="edgeStyle=orthogonalEdgeStyle;rounded=0;orthogonalLoop=1;jettySize=auto;html=1;exitX=0.5;exitY=1;exitDx=0;exitDy=0;entryX=0.5;entryY=0;entryDx=0;entryDy=0;fontFamily=Courier New;" parent="WIyWlLk6GJQsqaUBKTNV-1" source="426q9mbDbhlmfYrgDNKl-30" target="426q9mbDbhlmfYrgDNKl-31" edge="1">
          <mxGeometry relative="1" as="geometry" />
        </mxCell>
        <mxCell id="426q9mbDbhlmfYrgDNKl-30" value="&lt;font face=&quot;Courier New&quot;&gt;result_data_check&lt;/font&gt;" style="rounded=1;whiteSpace=wrap;html=1;fontSize=12;glass=0;strokeWidth=1;shadow=0;" parent="WIyWlLk6GJQsqaUBKTNV-1" vertex="1">
          <mxGeometry x="80" y="680" width="120" height="40" as="geometry" />
        </mxCell>
        <mxCell id="426q9mbDbhlmfYrgDNKl-32" value="self.result_data_enforced" style="text;html=1;align=center;verticalAlign=middle;resizable=0;points=[];autosize=1;strokeColor=none;fillColor=none;fontFamily=Courier New;" parent="WIyWlLk6GJQsqaUBKTNV-1" vertex="1">
          <mxGeometry x="180" y="720" width="200" height="20" as="geometry" />
        </mxCell>
        <mxCell id="426q9mbDbhlmfYrgDNKl-34" value="" style="edgeStyle=orthogonalEdgeStyle;rounded=0;orthogonalLoop=1;jettySize=auto;html=1;entryX=0.5;entryY=0;entryDx=0;entryDy=0;startArrow=none;exitX=1;exitY=0.5;exitDx=0;exitDy=0;" parent="WIyWlLk6GJQsqaUBKTNV-1" source="426q9mbDbhlmfYrgDNKl-31" target="426q9mbDbhlmfYrgDNKl-36" edge="1">
          <mxGeometry relative="1" as="geometry">
            <mxPoint x="138.91262135922352" y="742.9999999999998" as="sourcePoint" />
            <mxPoint x="299" y="780" as="targetPoint" />
            <Array as="points">
              <mxPoint x="330" y="751" />
            </Array>
          </mxGeometry>
        </mxCell>
        <mxCell id="eTxJK0bVo6HxSSfMcKyI-0" value="&lt;font face=&quot;Courier New&quot;&gt;Yes&lt;/font&gt;" style="edgeLabel;html=1;align=center;verticalAlign=middle;resizable=0;points=[];" parent="426q9mbDbhlmfYrgDNKl-34" vertex="1" connectable="0">
          <mxGeometry x="-0.1962" y="-1" relative="1" as="geometry">
            <mxPoint as="offset" />
          </mxGeometry>
        </mxCell>
        <mxCell id="426q9mbDbhlmfYrgDNKl-48" value="" style="edgeStyle=orthogonalEdgeStyle;rounded=0;orthogonalLoop=1;jettySize=auto;html=1;fontFamily=Courier New;" parent="WIyWlLk6GJQsqaUBKTNV-1" source="426q9mbDbhlmfYrgDNKl-36" target="426q9mbDbhlmfYrgDNKl-38" edge="1">
          <mxGeometry relative="1" as="geometry" />
        </mxCell>
        <mxCell id="426q9mbDbhlmfYrgDNKl-36" value="&lt;span style=&quot;font-family: &amp;quot;Courier New&amp;quot;;&quot;&gt;jsonschema_validate&lt;/span&gt;" style="rounded=1;whiteSpace=wrap;html=1;fontSize=12;glass=0;strokeWidth=1;shadow=0;" parent="WIyWlLk6GJQsqaUBKTNV-1" vertex="1">
          <mxGeometry x="255" y="793" width="150" height="40" as="geometry" />
        </mxCell>
        <mxCell id="426q9mbDbhlmfYrgDNKl-47" style="edgeStyle=orthogonalEdgeStyle;rounded=0;orthogonalLoop=1;jettySize=auto;html=1;exitX=0.5;exitY=1;exitDx=0;exitDy=0;fontFamily=Courier New;entryX=0.5;entryY=0;entryDx=0;entryDy=0;" parent="WIyWlLk6GJQsqaUBKTNV-1" edge="1">
          <mxGeometry relative="1" as="geometry">
            <mxPoint x="144" y="833" as="sourcePoint" />
            <mxPoint x="143" y="850" as="targetPoint" />
          </mxGeometry>
        </mxCell>
        <mxCell id="426q9mbDbhlmfYrgDNKl-38" value="&lt;font face=&quot;Courier New&quot;&gt;validate&lt;/font&gt;" style="rounded=1;whiteSpace=wrap;html=1;fontSize=12;glass=0;strokeWidth=1;shadow=0;" parent="WIyWlLk6GJQsqaUBKTNV-1" vertex="1">
          <mxGeometry x="81" y="793" width="130" height="40" as="geometry" />
        </mxCell>
        <mxCell id="426q9mbDbhlmfYrgDNKl-41" value="" style="edgeStyle=orthogonalEdgeStyle;rounded=0;orthogonalLoop=1;jettySize=auto;html=1;fontFamily=Courier New;" parent="WIyWlLk6GJQsqaUBKTNV-1" source="426q9mbDbhlmfYrgDNKl-31" edge="1">
          <mxGeometry relative="1" as="geometry">
            <mxPoint x="143" y="790" as="targetPoint" />
            <Array as="points" />
          </mxGeometry>
        </mxCell>
        <mxCell id="eTxJK0bVo6HxSSfMcKyI-5" value="&lt;font face=&quot;Courier New&quot;&gt;No&lt;/font&gt;" style="edgeLabel;html=1;align=center;verticalAlign=middle;resizable=0;points=[];" parent="426q9mbDbhlmfYrgDNKl-41" vertex="1" connectable="0">
          <mxGeometry x="-0.7148" y="-2" relative="1" as="geometry">
            <mxPoint x="1" y="1" as="offset" />
          </mxGeometry>
        </mxCell>
        <mxCell id="426q9mbDbhlmfYrgDNKl-31" value="" style="rhombus;whiteSpace=wrap;html=1;shadow=0;fontFamily=Helvetica;fontSize=12;align=center;strokeWidth=1;spacing=6;spacingTop=-4;" parent="WIyWlLk6GJQsqaUBKTNV-1" vertex="1">
          <mxGeometry x="128" y="738" width="30" height="25.75" as="geometry" />
        </mxCell>
        <mxCell id="426q9mbDbhlmfYrgDNKl-42" value="process" style="rounded=1;whiteSpace=wrap;html=1;fontSize=12;glass=0;strokeWidth=1;shadow=0;" parent="WIyWlLk6GJQsqaUBKTNV-1" vertex="1">
          <mxGeometry x="80" y="850" width="130" height="40" as="geometry" />
        </mxCell>
        <mxCell id="426q9mbDbhlmfYrgDNKl-43" value="process" style="rounded=1;whiteSpace=wrap;html=1;fontSize=12;glass=0;strokeWidth=1;shadow=0;" parent="WIyWlLk6GJQsqaUBKTNV-1" vertex="1">
          <mxGeometry x="90" y="860" width="130" height="40" as="geometry" />
        </mxCell>
        <mxCell id="426q9mbDbhlmfYrgDNKl-50" value="" style="edgeStyle=orthogonalEdgeStyle;rounded=0;orthogonalLoop=1;jettySize=auto;html=1;fontFamily=Courier New;exitX=0.408;exitY=0.988;exitDx=0;exitDy=0;exitPerimeter=0;" parent="WIyWlLk6GJQsqaUBKTNV-1" edge="1">
          <mxGeometry relative="1" as="geometry">
            <mxPoint x="144.03999999999996" y="909.52" as="sourcePoint" />
            <mxPoint x="144" y="940" as="targetPoint" />
          </mxGeometry>
        </mxCell>
        <mxCell id="426q9mbDbhlmfYrgDNKl-44" value="&lt;font face=&quot;Courier New&quot;&gt;validate_&amp;lt;any&amp;gt;&lt;/font&gt;" style="rounded=1;whiteSpace=wrap;html=1;fontSize=12;glass=0;strokeWidth=1;shadow=0;" parent="WIyWlLk6GJQsqaUBKTNV-1" vertex="1">
          <mxGeometry x="100" y="870" width="130" height="40" as="geometry" />
        </mxCell>
        <mxCell id="eTxJK0bVo6HxSSfMcKyI-14" style="edgeStyle=orthogonalEdgeStyle;rounded=0;orthogonalLoop=1;jettySize=auto;html=1;entryX=0.5;entryY=0;entryDx=0;entryDy=0;fontFamily=Courier New;fontSize=12;" parent="WIyWlLk6GJQsqaUBKTNV-1" source="426q9mbDbhlmfYrgDNKl-49" target="426q9mbDbhlmfYrgDNKl-54" edge="1">
          <mxGeometry relative="1" as="geometry" />
        </mxCell>
        <mxCell id="426q9mbDbhlmfYrgDNKl-49" value="&lt;font face=&quot;Courier New&quot;&gt;cartesian_product&lt;/font&gt;" style="rounded=1;whiteSpace=wrap;html=1;fontSize=12;glass=0;strokeWidth=1;shadow=0;" parent="WIyWlLk6GJQsqaUBKTNV-1" vertex="1">
          <mxGeometry x="80" y="940" width="130" height="38.5" as="geometry" />
        </mxCell>
        <mxCell id="426q9mbDbhlmfYrgDNKl-51" value="self.input_data_enforced" style="text;html=1;align=center;verticalAlign=middle;resizable=0;points=[];autosize=1;strokeColor=none;fillColor=none;fontFamily=Courier New;" parent="WIyWlLk6GJQsqaUBKTNV-1" vertex="1">
          <mxGeometry x="155" y="520" width="190" height="20" as="geometry" />
        </mxCell>
        <mxCell id="eTxJK0bVo6HxSSfMcKyI-15" style="edgeStyle=orthogonalEdgeStyle;rounded=0;orthogonalLoop=1;jettySize=auto;html=1;fontFamily=Courier New;fontSize=12;entryX=0.5;entryY=0;entryDx=0;entryDy=0;" parent="WIyWlLk6GJQsqaUBKTNV-1" source="426q9mbDbhlmfYrgDNKl-54" target="426q9mbDbhlmfYrgDNKl-56" edge="1">
          <mxGeometry relative="1" as="geometry">
            <mxPoint x="140" y="1050" as="targetPoint" />
            <Array as="points" />
          </mxGeometry>
        </mxCell>
        <mxCell id="eTxJK0bVo6HxSSfMcKyI-18" value="Yes" style="edgeLabel;html=1;align=center;verticalAlign=middle;resizable=0;points=[];fontSize=12;fontFamily=Courier New;" parent="eTxJK0bVo6HxSSfMcKyI-15" vertex="1" connectable="0">
          <mxGeometry x="0.2308" y="-1" relative="1" as="geometry">
            <mxPoint as="offset" />
          </mxGeometry>
        </mxCell>
        <mxCell id="426q9mbDbhlmfYrgDNKl-54" value="" style="rhombus;whiteSpace=wrap;html=1;fontFamily=Courier New;" parent="WIyWlLk6GJQsqaUBKTNV-1" vertex="1">
          <mxGeometry x="130" y="994" width="30" height="30" as="geometry" />
        </mxCell>
        <mxCell id="426q9mbDbhlmfYrgDNKl-56" value="Same ip check" style="shape=document;whiteSpace=wrap;html=1;boundedLbl=1;fontFamily=Courier New;" parent="WIyWlLk6GJQsqaUBKTNV-1" vertex="1">
          <mxGeometry x="80" y="1052" width="130" height="30" as="geometry" />
        </mxCell>
        <mxCell id="426q9mbDbhlmfYrgDNKl-58" value="" style="rounded=0;whiteSpace=wrap;html=1;" parent="WIyWlLk6GJQsqaUBKTNV-1" vertex="1">
          <mxGeometry x="435" y="310" width="370" height="340" as="geometry" />
        </mxCell>
        <mxCell id="426q9mbDbhlmfYrgDNKl-148" value="" style="edgeStyle=orthogonalEdgeStyle;rounded=0;orthogonalLoop=1;jettySize=auto;html=1;fontFamily=Courier New;fontSize=28;entryX=0.5;entryY=0;entryDx=0;entryDy=0;" parent="WIyWlLk6GJQsqaUBKTNV-1" source="426q9mbDbhlmfYrgDNKl-59" target="426q9mbDbhlmfYrgDNKl-67" edge="1">
          <mxGeometry relative="1" as="geometry" />
        </mxCell>
        <mxCell id="426q9mbDbhlmfYrgDNKl-153" value="" style="edgeStyle=orthogonalEdgeStyle;rounded=0;orthogonalLoop=1;jettySize=auto;html=1;fontFamily=Courier New;fontSize=28;" parent="WIyWlLk6GJQsqaUBKTNV-1" source="426q9mbDbhlmfYrgDNKl-59" target="426q9mbDbhlmfYrgDNKl-72" edge="1">
          <mxGeometry relative="1" as="geometry" />
        </mxCell>
        <mxCell id="426q9mbDbhlmfYrgDNKl-59" value="&lt;font face=&quot;Courier New&quot;&gt;enforce&lt;/font&gt;" style="rounded=1;whiteSpace=wrap;html=1;fontSize=12;glass=0;strokeWidth=1;shadow=0;" parent="WIyWlLk6GJQsqaUBKTNV-1" vertex="1">
          <mxGeometry x="475" y="380" width="130" height="40" as="geometry" />
        </mxCell>
        <mxCell id="426q9mbDbhlmfYrgDNKl-67" value="process" style="rounded=1;whiteSpace=wrap;html=1;fontSize=12;glass=0;strokeWidth=1;shadow=0;" parent="WIyWlLk6GJQsqaUBKTNV-1" vertex="1">
          <mxGeometry x="475" y="460" width="130" height="40" as="geometry" />
        </mxCell>
        <mxCell id="426q9mbDbhlmfYrgDNKl-68" value="process" style="rounded=1;whiteSpace=wrap;html=1;fontSize=12;glass=0;strokeWidth=1;shadow=0;" parent="WIyWlLk6GJQsqaUBKTNV-1" vertex="1">
          <mxGeometry x="485" y="470" width="130" height="40" as="geometry" />
        </mxCell>
        <mxCell id="426q9mbDbhlmfYrgDNKl-155" value="" style="edgeStyle=orthogonalEdgeStyle;rounded=0;orthogonalLoop=1;jettySize=auto;html=1;fontFamily=Courier New;fontSize=28;" parent="WIyWlLk6GJQsqaUBKTNV-1" edge="1">
          <mxGeometry relative="1" as="geometry">
            <Array as="points">
              <mxPoint x="540" y="530" />
              <mxPoint x="540" y="530" />
            </Array>
            <mxPoint x="540" y="520" as="sourcePoint" />
            <mxPoint x="540" y="545" as="targetPoint" />
          </mxGeometry>
        </mxCell>
        <mxCell id="426q9mbDbhlmfYrgDNKl-69" value="&lt;font face=&quot;Courier New&quot;&gt;enforce_&amp;lt;any&amp;gt;&lt;/font&gt;" style="rounded=1;whiteSpace=wrap;html=1;fontSize=12;glass=0;strokeWidth=1;shadow=0;" parent="WIyWlLk6GJQsqaUBKTNV-1" vertex="1">
          <mxGeometry x="495" y="480" width="130" height="40" as="geometry" />
        </mxCell>
        <mxCell id="426q9mbDbhlmfYrgDNKl-76" value="" style="edgeStyle=orthogonalEdgeStyle;rounded=0;orthogonalLoop=1;jettySize=auto;html=1;fontFamily=Courier New;exitX=0.5;exitY=1;exitDx=0;exitDy=0;" parent="WIyWlLk6GJQsqaUBKTNV-1" source="426q9mbDbhlmfYrgDNKl-72" target="426q9mbDbhlmfYrgDNKl-75" edge="1">
          <mxGeometry relative="1" as="geometry">
            <mxPoint x="695" y="477.8699999999999" as="sourcePoint" />
            <Array as="points" />
          </mxGeometry>
        </mxCell>
        <mxCell id="eTxJK0bVo6HxSSfMcKyI-6" value="&lt;font face=&quot;Courier New&quot;&gt;Yes&lt;/font&gt;" style="edgeLabel;html=1;align=center;verticalAlign=middle;resizable=0;points=[];" parent="426q9mbDbhlmfYrgDNKl-76" vertex="1" connectable="0">
          <mxGeometry x="-0.1491" y="-2" relative="1" as="geometry">
            <mxPoint as="offset" />
          </mxGeometry>
        </mxCell>
        <mxCell id="426q9mbDbhlmfYrgDNKl-72" value="" style="rhombus;whiteSpace=wrap;html=1;shadow=0;fontFamily=Helvetica;fontSize=12;align=center;strokeWidth=1;spacing=6;spacingTop=-4;" parent="WIyWlLk6GJQsqaUBKTNV-1" vertex="1">
          <mxGeometry x="680" y="386.37" width="30" height="25.75" as="geometry" />
        </mxCell>
        <mxCell id="426q9mbDbhlmfYrgDNKl-74" value="self.order_enforce" style="text;html=1;align=center;verticalAlign=middle;resizable=0;points=[];autosize=1;strokeColor=none;fillColor=none;fontFamily=Courier New;" parent="WIyWlLk6GJQsqaUBKTNV-1" vertex="1">
          <mxGeometry x="664" y="366.37" width="150" height="20" as="geometry" />
        </mxCell>
        <mxCell id="426q9mbDbhlmfYrgDNKl-149" value="" style="edgeStyle=orthogonalEdgeStyle;rounded=0;orthogonalLoop=1;jettySize=auto;html=1;fontFamily=Courier New;fontSize=28;" parent="WIyWlLk6GJQsqaUBKTNV-1" source="426q9mbDbhlmfYrgDNKl-75" target="426q9mbDbhlmfYrgDNKl-127" edge="1">
          <mxGeometry relative="1" as="geometry" />
        </mxCell>
        <mxCell id="426q9mbDbhlmfYrgDNKl-75" value="&lt;span style=&quot;font-family: &amp;quot;Courier New&amp;quot;;&quot;&gt;enforce_matrix&lt;/span&gt;" style="rounded=1;whiteSpace=wrap;html=1;fontSize=12;glass=0;strokeWidth=1;shadow=0;" parent="WIyWlLk6GJQsqaUBKTNV-1" vertex="1">
          <mxGeometry x="630" y="480" width="130" height="40" as="geometry" />
        </mxCell>
        <mxCell id="426q9mbDbhlmfYrgDNKl-81" value="" style="rounded=0;whiteSpace=wrap;html=1;" parent="WIyWlLk6GJQsqaUBKTNV-1" vertex="1">
          <mxGeometry x="820" y="310" width="260" height="340" as="geometry" />
        </mxCell>
        <mxCell id="426q9mbDbhlmfYrgDNKl-136" value="" style="edgeStyle=orthogonalEdgeStyle;rounded=0;orthogonalLoop=1;jettySize=auto;html=1;fontFamily=Courier New;fontSize=28;" parent="WIyWlLk6GJQsqaUBKTNV-1" source="426q9mbDbhlmfYrgDNKl-83" target="426q9mbDbhlmfYrgDNKl-132" edge="1">
          <mxGeometry relative="1" as="geometry" />
        </mxCell>
        <mxCell id="426q9mbDbhlmfYrgDNKl-83" value="&lt;font face=&quot;Courier New&quot;&gt;match_details&lt;/font&gt;" style="rounded=1;whiteSpace=wrap;html=1;fontSize=12;glass=0;strokeWidth=1;shadow=0;" parent="WIyWlLk6GJQsqaUBKTNV-1" vertex="1">
          <mxGeometry x="860" y="412.12" width="130" height="40" as="geometry" />
        </mxCell>
        <mxCell id="426q9mbDbhlmfYrgDNKl-84" value="process" style="rounded=1;whiteSpace=wrap;html=1;fontSize=12;glass=0;strokeWidth=1;shadow=0;" parent="WIyWlLk6GJQsqaUBKTNV-1" vertex="1">
          <mxGeometry x="860" y="565" width="130" height="40" as="geometry" />
        </mxCell>
        <mxCell id="426q9mbDbhlmfYrgDNKl-85" value="process" style="rounded=1;whiteSpace=wrap;html=1;fontSize=12;glass=0;strokeWidth=1;shadow=0;" parent="WIyWlLk6GJQsqaUBKTNV-1" vertex="1">
          <mxGeometry x="870" y="575" width="130" height="40" as="geometry" />
        </mxCell>
        <mxCell id="426q9mbDbhlmfYrgDNKl-86" value="&lt;font face=&quot;Courier New&quot;&gt;match_&amp;lt;attr&amp;gt;&lt;/font&gt;" style="rounded=1;whiteSpace=wrap;html=1;fontSize=12;glass=0;strokeWidth=1;shadow=0;" parent="WIyWlLk6GJQsqaUBKTNV-1" vertex="1">
          <mxGeometry x="880" y="585" width="130" height="40" as="geometry" />
        </mxCell>
        <mxCell id="426q9mbDbhlmfYrgDNKl-135" value="" style="edgeStyle=orthogonalEdgeStyle;rounded=0;orthogonalLoop=1;jettySize=auto;html=1;fontFamily=Courier New;fontSize=28;" parent="WIyWlLk6GJQsqaUBKTNV-1" source="426q9mbDbhlmfYrgDNKl-93" target="426q9mbDbhlmfYrgDNKl-83" edge="1">
          <mxGeometry relative="1" as="geometry" />
        </mxCell>
        <mxCell id="426q9mbDbhlmfYrgDNKl-93" value="&lt;font face=&quot;Courier New&quot;&gt;match&lt;/font&gt;" style="rounded=1;whiteSpace=wrap;html=1;fontSize=12;glass=0;strokeWidth=1;shadow=0;" parent="WIyWlLk6GJQsqaUBKTNV-1" vertex="1">
          <mxGeometry x="860" y="350" width="130" height="40" as="geometry" />
        </mxCell>
        <mxCell id="426q9mbDbhlmfYrgDNKl-96" value="&lt;span style=&quot;color: rgb(0, 0, 0); font-family: &amp;quot;Courier New&amp;quot;; font-style: normal; font-variant-ligatures: normal; font-variant-caps: normal; letter-spacing: normal; orphans: 2; text-indent: 0px; text-transform: none; widows: 2; word-spacing: 0px; -webkit-text-stroke-width: 0px; background-color: rgb(248, 249, 250); text-decoration-thickness: initial; text-decoration-style: initial; text-decoration-color: initial; float: none; display: inline !important;&quot;&gt;&lt;b style=&quot;&quot;&gt;&lt;font style=&quot;font-size: 18px;&quot;&gt;Initialize&lt;/font&gt;&lt;/b&gt;&lt;/span&gt;" style="text;whiteSpace=wrap;html=1;fontFamily=Courier New;align=center;" parent="WIyWlLk6GJQsqaUBKTNV-1" vertex="1">
          <mxGeometry x="60" y="310" width="360" height="30" as="geometry" />
        </mxCell>
        <mxCell id="426q9mbDbhlmfYrgDNKl-97" value="&lt;span style=&quot;color: rgb(0, 0, 0); font-family: &amp;quot;Courier New&amp;quot;; font-style: normal; font-variant-ligatures: normal; font-variant-caps: normal; letter-spacing: normal; orphans: 2; text-indent: 0px; text-transform: none; widows: 2; word-spacing: 0px; -webkit-text-stroke-width: 0px; background-color: rgb(248, 249, 250); text-decoration-thickness: initial; text-decoration-style: initial; text-decoration-color: initial; float: none; display: inline !important;&quot;&gt;&lt;b style=&quot;&quot;&gt;&lt;font style=&quot;font-size: 28px;&quot;&gt;ACLRule&lt;/font&gt;&lt;/b&gt;&lt;/span&gt;" style="text;whiteSpace=wrap;html=1;fontFamily=Courier New;align=left;" parent="WIyWlLk6GJQsqaUBKTNV-1" vertex="1">
          <mxGeometry x="20" y="240" width="248" height="30" as="geometry" />
        </mxCell>
        <mxCell id="426q9mbDbhlmfYrgDNKl-98" value="&lt;span style=&quot;color: rgb(0, 0, 0); font-family: &amp;quot;Courier New&amp;quot;; font-style: normal; font-variant-ligatures: normal; font-variant-caps: normal; letter-spacing: normal; orphans: 2; text-indent: 0px; text-transform: none; widows: 2; word-spacing: 0px; -webkit-text-stroke-width: 0px; background-color: rgb(248, 249, 250); text-decoration-thickness: initial; text-decoration-style: initial; text-decoration-color: initial; float: none; display: inline !important;&quot;&gt;&lt;b style=&quot;&quot;&gt;&lt;font style=&quot;font-size: 18px;&quot;&gt;Match&lt;/font&gt;&lt;/b&gt;&lt;/span&gt;" style="text;whiteSpace=wrap;html=1;fontFamily=Courier New;align=center;" parent="WIyWlLk6GJQsqaUBKTNV-1" vertex="1">
          <mxGeometry x="825" y="310" width="255" height="30" as="geometry" />
        </mxCell>
        <mxCell id="426q9mbDbhlmfYrgDNKl-99" value="&lt;span style=&quot;color: rgb(0, 0, 0); font-family: &amp;quot;Courier New&amp;quot;; font-style: normal; font-variant-ligatures: normal; font-variant-caps: normal; letter-spacing: normal; orphans: 2; text-indent: 0px; text-transform: none; widows: 2; word-spacing: 0px; -webkit-text-stroke-width: 0px; background-color: rgb(248, 249, 250); text-decoration-thickness: initial; text-decoration-style: initial; text-decoration-color: initial; float: none; display: inline !important;&quot;&gt;&lt;b style=&quot;&quot;&gt;&lt;font style=&quot;font-size: 18px;&quot;&gt;Enforce&lt;/font&gt;&lt;/b&gt;&lt;/span&gt;" style="text;whiteSpace=wrap;html=1;fontFamily=Courier New;align=center;" parent="WIyWlLk6GJQsqaUBKTNV-1" vertex="1">
          <mxGeometry x="440" y="320" width="360" height="30" as="geometry" />
        </mxCell>
        <mxCell id="426q9mbDbhlmfYrgDNKl-101" value="&lt;span style=&quot;color: rgb(0, 0, 0); font-family: &amp;quot;Courier New&amp;quot;; font-style: normal; font-variant-ligatures: normal; font-variant-caps: normal; letter-spacing: normal; orphans: 2; text-indent: 0px; text-transform: none; widows: 2; word-spacing: 0px; -webkit-text-stroke-width: 0px; background-color: rgb(248, 249, 250); text-decoration-thickness: initial; text-decoration-style: initial; text-decoration-color: initial; float: none; display: inline !important;&quot;&gt;&lt;b style=&quot;&quot;&gt;&lt;font style=&quot;font-size: 28px;&quot;&gt;ACLRules&lt;/font&gt;&lt;/b&gt;&lt;/span&gt;" style="text;whiteSpace=wrap;html=1;fontFamily=Courier New;align=left;" parent="WIyWlLk6GJQsqaUBKTNV-1" vertex="1">
          <mxGeometry x="20" y="14" width="260" height="30" as="geometry" />
        </mxCell>
        <mxCell id="426q9mbDbhlmfYrgDNKl-102" value="" style="rounded=0;whiteSpace=wrap;html=1;" parent="WIyWlLk6GJQsqaUBKTNV-1" vertex="1">
          <mxGeometry x="200" y="24" width="265" height="200" as="geometry" />
        </mxCell>
        <mxCell id="426q9mbDbhlmfYrgDNKl-112" value="" style="edgeStyle=orthogonalEdgeStyle;rounded=0;orthogonalLoop=1;jettySize=auto;html=1;fontFamily=Courier New;fontSize=28;" parent="WIyWlLk6GJQsqaUBKTNV-1" source="426q9mbDbhlmfYrgDNKl-109" target="426q9mbDbhlmfYrgDNKl-111" edge="1">
          <mxGeometry relative="1" as="geometry" />
        </mxCell>
        <mxCell id="426q9mbDbhlmfYrgDNKl-109" value="&lt;font face=&quot;Courier New&quot;&gt;load_data&lt;/font&gt;" style="rounded=1;whiteSpace=wrap;html=1;fontSize=12;glass=0;strokeWidth=1;shadow=0;" parent="WIyWlLk6GJQsqaUBKTNV-1" vertex="1">
          <mxGeometry x="268" y="124" width="130" height="40" as="geometry" />
        </mxCell>
        <mxCell id="426q9mbDbhlmfYrgDNKl-110" value="&lt;b&gt;&lt;font style=&quot;font-size: 18px;&quot;&gt;Initialize&lt;/font&gt;&lt;/b&gt;" style="text;whiteSpace=wrap;html=1;fontFamily=Courier New;align=center;" parent="WIyWlLk6GJQsqaUBKTNV-1" vertex="1">
          <mxGeometry x="205" y="24" width="260" height="30" as="geometry" />
        </mxCell>
        <mxCell id="426q9mbDbhlmfYrgDNKl-120" value="" style="edgeStyle=orthogonalEdgeStyle;rounded=0;orthogonalLoop=1;jettySize=auto;html=1;fontFamily=Courier New;fontSize=28;" parent="WIyWlLk6GJQsqaUBKTNV-1" source="426q9mbDbhlmfYrgDNKl-111" target="426q9mbDbhlmfYrgDNKl-96" edge="1">
          <mxGeometry relative="1" as="geometry" />
        </mxCell>
        <mxCell id="426q9mbDbhlmfYrgDNKl-111" value="For each rule" style="shape=document;whiteSpace=wrap;html=1;boundedLbl=1;fontFamily=Courier New;" parent="WIyWlLk6GJQsqaUBKTNV-1" vertex="1">
          <mxGeometry x="268" y="184" width="130" height="30" as="geometry" />
        </mxCell>
        <mxCell id="eTxJK0bVo6HxSSfMcKyI-12" value="" style="edgeStyle=orthogonalEdgeStyle;rounded=0;orthogonalLoop=1;jettySize=auto;html=1;fontFamily=Courier New;fontSize=12;" parent="WIyWlLk6GJQsqaUBKTNV-1" source="426q9mbDbhlmfYrgDNKl-113" target="426q9mbDbhlmfYrgDNKl-109" edge="1">
          <mxGeometry relative="1" as="geometry" />
        </mxCell>
        <mxCell id="426q9mbDbhlmfYrgDNKl-113" value="&lt;font face=&quot;Courier New&quot;&gt;__init__&lt;/font&gt;" style="rounded=1;whiteSpace=wrap;html=1;fontSize=12;glass=0;strokeWidth=1;shadow=0;" parent="WIyWlLk6GJQsqaUBKTNV-1" vertex="1">
          <mxGeometry x="267.5" y="64" width="130" height="40" as="geometry" />
        </mxCell>
        <mxCell id="426q9mbDbhlmfYrgDNKl-114" value="" style="rounded=0;whiteSpace=wrap;html=1;" parent="WIyWlLk6GJQsqaUBKTNV-1" vertex="1">
          <mxGeometry x="667" y="24" width="310" height="200" as="geometry" />
        </mxCell>
        <mxCell id="426q9mbDbhlmfYrgDNKl-115" value="" style="edgeStyle=orthogonalEdgeStyle;rounded=0;orthogonalLoop=1;jettySize=auto;html=1;fontFamily=Courier New;fontSize=28;" parent="WIyWlLk6GJQsqaUBKTNV-1" source="426q9mbDbhlmfYrgDNKl-116" target="426q9mbDbhlmfYrgDNKl-118" edge="1">
          <mxGeometry relative="1" as="geometry" />
        </mxCell>
        <mxCell id="426q9mbDbhlmfYrgDNKl-116" value="&lt;font face=&quot;Courier New&quot;&gt;match_details&lt;/font&gt;" style="rounded=1;whiteSpace=wrap;html=1;fontSize=12;glass=0;strokeWidth=1;shadow=0;" parent="WIyWlLk6GJQsqaUBKTNV-1" vertex="1">
          <mxGeometry x="684" y="114" width="130" height="40" as="geometry" />
        </mxCell>
        <mxCell id="426q9mbDbhlmfYrgDNKl-117" value="&lt;b&gt;&lt;font style=&quot;font-size: 18px;&quot;&gt;Match&lt;/font&gt;&lt;/b&gt;" style="text;whiteSpace=wrap;html=1;fontFamily=Courier New;align=center;" parent="WIyWlLk6GJQsqaUBKTNV-1" vertex="1">
          <mxGeometry x="672" y="24" width="295" height="30" as="geometry" />
        </mxCell>
        <mxCell id="426q9mbDbhlmfYrgDNKl-124" value="" style="edgeStyle=orthogonalEdgeStyle;rounded=0;orthogonalLoop=1;jettySize=auto;html=1;fontFamily=Courier New;fontSize=28;entryX=0;entryY=0.5;entryDx=0;entryDy=0;" parent="WIyWlLk6GJQsqaUBKTNV-1" source="426q9mbDbhlmfYrgDNKl-118" target="426q9mbDbhlmfYrgDNKl-83" edge="1">
          <mxGeometry relative="1" as="geometry">
            <Array as="points">
              <mxPoint x="749" y="270" />
              <mxPoint x="840" y="270" />
              <mxPoint x="840" y="432" />
            </Array>
          </mxGeometry>
        </mxCell>
        <mxCell id="426q9mbDbhlmfYrgDNKl-118" value="For each rule" style="shape=document;whiteSpace=wrap;html=1;boundedLbl=1;fontFamily=Courier New;" parent="WIyWlLk6GJQsqaUBKTNV-1" vertex="1">
          <mxGeometry x="684" y="174" width="130" height="30" as="geometry" />
        </mxCell>
        <mxCell id="426q9mbDbhlmfYrgDNKl-144" value="" style="edgeStyle=orthogonalEdgeStyle;rounded=0;orthogonalLoop=1;jettySize=auto;html=1;fontFamily=Courier New;fontSize=28;" parent="WIyWlLk6GJQsqaUBKTNV-1" source="426q9mbDbhlmfYrgDNKl-121" target="426q9mbDbhlmfYrgDNKl-122" edge="1">
          <mxGeometry relative="1" as="geometry" />
        </mxCell>
        <mxCell id="426q9mbDbhlmfYrgDNKl-121" value="&lt;font face=&quot;Courier New&quot;&gt;match&lt;/font&gt;" style="rounded=1;whiteSpace=wrap;html=1;fontSize=12;glass=0;strokeWidth=1;shadow=0;" parent="WIyWlLk6GJQsqaUBKTNV-1" vertex="1">
          <mxGeometry x="827" y="114" width="130" height="40" as="geometry" />
        </mxCell>
        <mxCell id="426q9mbDbhlmfYrgDNKl-125" value="" style="edgeStyle=orthogonalEdgeStyle;rounded=0;orthogonalLoop=1;jettySize=auto;html=1;fontFamily=Courier New;fontSize=28;" parent="WIyWlLk6GJQsqaUBKTNV-1" source="426q9mbDbhlmfYrgDNKl-122" edge="1">
          <mxGeometry relative="1" as="geometry">
            <mxPoint x="890" y="350" as="targetPoint" />
            <Array as="points">
              <mxPoint x="890" y="240" />
              <mxPoint x="890" y="240" />
            </Array>
          </mxGeometry>
        </mxCell>
        <mxCell id="426q9mbDbhlmfYrgDNKl-122" value="For each rule" style="shape=document;whiteSpace=wrap;html=1;boundedLbl=1;fontFamily=Courier New;" parent="WIyWlLk6GJQsqaUBKTNV-1" vertex="1">
          <mxGeometry x="827" y="174" width="130" height="30" as="geometry" />
        </mxCell>
        <mxCell id="426q9mbDbhlmfYrgDNKl-127" value="For each cartesian product" style="shape=document;whiteSpace=wrap;html=1;boundedLbl=1;fontFamily=Courier New;size=0.3333333333333333;" parent="WIyWlLk6GJQsqaUBKTNV-1" vertex="1">
          <mxGeometry x="630" y="545" width="130" height="60" as="geometry" />
        </mxCell>
        <mxCell id="426q9mbDbhlmfYrgDNKl-138" value="" style="edgeStyle=orthogonalEdgeStyle;rounded=0;orthogonalLoop=1;jettySize=auto;html=1;fontFamily=Courier New;fontSize=28;" parent="WIyWlLk6GJQsqaUBKTNV-1" source="426q9mbDbhlmfYrgDNKl-132" target="426q9mbDbhlmfYrgDNKl-84" edge="1">
          <mxGeometry relative="1" as="geometry" />
        </mxCell>
        <mxCell id="426q9mbDbhlmfYrgDNKl-132" value="For each cartesian product" style="shape=document;whiteSpace=wrap;html=1;boundedLbl=1;fontFamily=Courier New;size=0.3333333333333333;" parent="WIyWlLk6GJQsqaUBKTNV-1" vertex="1">
          <mxGeometry x="860" y="480" width="130" height="60" as="geometry" />
        </mxCell>
        <mxCell id="426q9mbDbhlmfYrgDNKl-154" value="(Best Practice) For each cartesian product" style="shape=document;whiteSpace=wrap;html=1;boundedLbl=1;fontFamily=Courier New;size=0.3333333333333333;" parent="WIyWlLk6GJQsqaUBKTNV-1" vertex="1">
          <mxGeometry x="475" y="545" width="130" height="60" as="geometry" />
        </mxCell>
        <mxCell id="eTxJK0bVo6HxSSfMcKyI-13" value="self.filter_same_ip" style="text;html=1;align=center;verticalAlign=middle;resizable=0;points=[];autosize=1;strokeColor=none;fillColor=none;fontFamily=Courier New;" parent="WIyWlLk6GJQsqaUBKTNV-1" vertex="1">
          <mxGeometry x="155" y="996" width="150" height="20" as="geometry" />
        </mxCell>
      </root>
    </mxGraphModel>
  </diagram>
</mxfile>
